# xmcd
#
# Track frame offsets:
#	150
#	19080
#	39192
#	52050
#	71513
#	85029
#	102520
#	123849
#	138108
#	151926
#	165457
#	183910
#	197069
#	208734
#	225027
#
# Disc length: 3301 seconds
#
# Revision: 1
# Processed by: cddbd v1.5.1PL0 Copyright (c) Steve Scherf et al.
# Submitted via: audiograbber 1.83.01
#
DISCID=b50ce30f
DTITLE=Marie Haslemore - NGA-AWA TORU
DYEAR=1900
DGENRE=Maori
TTITLE0=Beautiful Lady
TTITLE1=I Only See You
TTITLE2=Nga Awa Toru
TTITLE3=Blue Mistey Mountain
TTITLE4=Wahine Song
TTITLE5=California Blues
TTITLE6=Sailing Away
TTITLE7=Send Me The Pillow
TTITLE8=I think It's Time We Fell In Love
TTITLE9=Poi E
TTITLE10=You've Got Me
TTITLE11=Two Hearts Tangled
TTITLE12=A Nei Ra Te Kura
TTITLE13=Before The Next Teardrop
TTITLE14=How Great Thou Art
EXTD=
EXTT0=
EXTT1=
EXTT2=
EXTT3=
EXTT4=
EXTT5=
EXTT6=
EXTT7=
EXTT8=
EXTT9=
EXTT10=
EXTT11=
EXTT12=
EXTT13=
EXTT14=
PLAYORDER=
